<svg version="1.2" xmlns="http://www.w3.org/2000/svg" viewBox="0 0 350 350" width="350" height="350"><style>.a{fill:#fff}.b{fill:#747371}.c{fill:#fcd884}.d{fill:#2f4a5f}.e{fill:#2f495e}</style><path class="a" d="m1925 1925h-3500v-3500h3500z"/><path class="b" d="m268.3 30.6l-19.9 89.7q-0.7-0.7-1.4-1.3-0.2-0.3-0.5-0.6-0.5-0.5-1.1-1-0.3-0.3-0.5-0.5-0.7-0.6-1.4-1.2 0-0.1-0.1-0.2-0.9-0.7-1.7-1.4-0.7-0.7-1.5-1.3-0.2-0.2-0.6-0.4-0.7-0.7-1.4-1.2-0.9-0.7-1.8-1.4 0 0-0.1 0-0.9-0.7-1.8-1.4-0.9-0.6-1.9-1.3-0.1-0.1-0.3-0.2-0.7-0.5-1.5-1-1.3-0.8-2.6-1.6-0.7-0.4-1.4-0.8-0.9-0.6-1.8-1.1-0.2 0-0.3-0.1-1-0.5-2-1.1-2-1-4.1-2l8.6-34.5c2.8-11.1-5.6-21.9-17.1-21.9h-62.5c-11.4 0-19.8 10.8-17.1 21.9l8.1 32.4q0 0-0.1 0.1-1 0.3-2 0.8-1 0.4-2 0.8-0.1 0.1-0.3 0.2-0.8 0.4-1.7 0.8-0.2 0.1-0.4 0.2-0.8 0.4-1.6 0.8-0.2 0.1-0.3 0.1-0.9 0.5-1.8 1-1 0.5-1.9 1.1-1 0.5-2 1.1-1 0.6-1.9 1.2-2.8 1.7-5.4 3.6-0.9 0.7-1.8 1.4-0.9 0.6-1.8 1.3-2.7 2.2-5.2 4.4l-18.9-85.4c-2.5-11 5.9-21.4 17.1-21.4h144.5c11.2 0 19.6 10.4 17.2 21.4z"/><path class="c" d="m176.2 237.8c-26.1 0-47.1-21-47.1-47.1 0-26 21-47 47.1-47 26 0 47 21 47 47 0 26.1-21 47.1-47 47.1z"/><path fill-rule="evenodd" class="d" d="m179 89.9q0.7 0 1.4 0.1 0.8 0 1.5 0 0.6 0.1 1.3 0.1 0.7 0.1 1.4 0.1 0.6 0.1 1.3 0.1 0.1 0 0.3 0.1 0.6 0 1.2 0.1 0.7 0.1 1.3 0.1 2.8 0.4 5.5 0.9 1.3 0.2 2.6 0.5 1.4 0.3 2.7 0.6 0.7 0.1 1.4 0.3 0.6 0.2 1.3 0.4 0.6 0.1 1.3 0.3 1.3 0.4 2.6 0.8 0.6 0.2 1.2 0.4 1.3 0.4 2.6 0.8 3.7 1.4 7.3 3 0.1 0 0.1 0 0.7 0.3 1.3 0.6 2.1 1 4.1 2 1 0.6 2 1.1 0.1 0.1 0.3 0.1 0.9 0.5 1.8 1.1 0.7 0.4 1.4 0.8 1.3 0.8 2.6 1.6 0.8 0.5 1.5 1 0.2 0.1 0.3 0.2 1 0.7 1.9 1.3 0.9 0.7 1.8 1.4 0.1 0 0.1 0 0.9 0.7 1.8 1.4 0.7 0.6 1.4 1.2 0.4 0.2 0.6 0.4 0.8 0.6 1.5 1.3 0.8 0.7 1.7 1.4 0.1 0.1 0.1 0.2 0.7 0.6 1.4 1.2 0.2 0.2 0.5 0.5 0.6 0.5 1.1 1 0.3 0.3 0.5 0.6 0.7 0.6 1.4 1.3c17.7 18.2 28.6 43 28.6 70.4 0 33-15.8 62.3-40.3 80.7h-121.1c-24.4-18.4-40.3-47.7-40.3-80.7 0-29.6 12.8-56.2 33.1-74.7q2.5-2.2 5.2-4.4 0.9-0.7 1.8-1.3 0.9-0.7 1.8-1.4 2.6-1.9 5.4-3.6 0.9-0.6 1.9-1.2 1-0.6 2-1.1 0.9-0.6 1.9-1.1 0.9-0.5 1.8-1 0.1 0 0.3-0.1 0.8-0.4 1.6-0.8 0.2-0.1 0.4-0.2 0.9-0.4 1.7-0.8 0.2-0.1 0.3-0.2 1-0.4 2-0.8 1-0.5 2-0.8 0.1-0.1 0.1-0.1 0.1 0 0.1-0.1 0.5-0.2 1-0.3 0.6-0.3 1.1-0.5 0.6-0.2 1.1-0.4 0.6-0.2 1.1-0.4 4.5-1.5 9.1-2.6 0.6-0.2 1.2-0.3 5.2-1.2 10.6-1.9 0.6-0.1 1.2-0.1 0.1 0 0.2-0.1 1.1-0.1 2.3-0.2 0 0 0.1 0 1.1-0.1 2.3-0.1 3.1-0.2 6.2-0.2 1.4 0 2.8 0zm44.2 100.8c0-26-21-47-47-47-26.1 0-47.1 21-47.1 47 0 26.1 21 47.1 47.1 47.1 26 0 47-21 47-47.1z"/><path fill-rule="evenodd" d="m176.2 243.2c-29 0-52.5-23.5-52.5-52.5 0-29 23.5-52.4 52.5-52.4 29 0 52.4 23.4 52.4 52.4 0 29-23.4 52.5-52.4 52.5zm41.7-52.5c0-23-18.7-41.7-41.7-41.7-23.1 0-41.7 18.7-41.7 41.7 0 23.1 18.6 41.7 41.7 41.7 23 0 41.7-18.6 41.7-41.7z"/><path  d="m248.4 125.7c-1.4 0-2.8-0.6-3.9-1.6q-0.6-0.7-1.2-1.3c-2.2-2.1-2.2-5.5-0.1-7.6q0.5-0.5 1-0.8l18.8-85c0.8-3.6-0.1-7.4-2.4-10.3-2.3-2.9-5.8-4.5-9.5-4.5h-144.5c-3.7 0-7.2 1.6-9.5 4.5-2.3 2.9-3.2 6.7-2.4 10.3l18.9 85.5c0.7 2.9-1.2 5.8-4.1 6.4-2.9 0.6-5.7-1.2-6.4-4.1l-18.9-85.5c-1.5-6.8 0.1-13.9 4.5-19.3 4.4-5.5 10.9-8.6 17.9-8.6h144.5c7 0 13.5 3.1 17.9 8.6 4.4 5.4 6 12.5 4.5 19.3l-19.9 89.8c-0.4 1.9-1.8 3.5-3.7 4q-0.8 0.2-1.5 0.2z"/><path  d="m246.5 123.8c-1.4 0-2.7-0.5-3.8-1.5q-0.5-0.5-1-1c-2.2-2.1-2.3-5.5-0.2-7.6 2-2.2 5.4-2.3 7.6-0.2q0.6 0.5 1.2 1.1c2.1 2.1 2.1 5.5 0 7.6-1 1.1-2.4 1.6-3.8 1.6z"/><path  d="m244.9 122.3c-1.3 0-2.7-0.5-3.7-1.5q-0.6-0.6-1.2-1.1c-2.2-2-2.5-5.4-0.5-7.6 2-2.2 5.4-2.4 7.6-0.5q0.7 0.7 1.5 1.4c2.1 2 2.2 5.4 0.2 7.6-1.1 1.1-2.5 1.7-3.9 1.7z"/><path  d="m243.4 120.9c-1.3 0-2.6-0.5-3.6-1.4q-0.8-0.7-1.6-1.3-0.7-0.6-1.3-1.2c-2.4-1.9-2.7-5.2-0.8-7.5 1.8-2.4 5.2-2.7 7.5-0.8q0.8 0.6 1.6 1.3 0.9 0.7 1.8 1.5c2.2 2 2.3 5.4 0.4 7.6-1.1 1.2-2.6 1.8-4 1.8z"/><path  d="m239.6 117.7c-1.2 0-2.4-0.4-3.4-1.2q-0.7-0.6-1.3-1.1-0.9-0.7-1.8-1.3c-2.3-1.8-2.8-5.2-1-7.5 1.8-2.4 5.1-2.9 7.5-1.1q1 0.7 1.9 1.4 0.8 0.7 1.6 1.3c2.3 1.9 2.6 5.3 0.7 7.6-1.1 1.3-2.6 1.9-4.2 1.9z"/><path  d="m236.3 115.2c-1.1 0-2.2-0.4-3.2-1.1q-0.8-0.7-1.7-1.3-0.9-0.6-1.8-1.2c-2.5-1.7-3.1-5-1.4-7.5 1.6-2.4 5-3.1 7.4-1.4q1 0.7 2 1.3 1 0.7 2 1.5c2.4 1.8 2.8 5.2 1 7.5-1 1.4-2.6 2.2-4.3 2.2z"/><path  d="m232.3 112.3c-1 0-2-0.3-3-0.9q-0.7-0.5-1.4-0.9c-2.5-1.7-3.3-5-1.7-7.5 1.6-2.5 5-3.2 7.5-1.6q0.8 0.5 1.7 1.1c2.4 1.7 3.1 5 1.4 7.5-1 1.5-2.7 2.3-4.5 2.3z"/><path  d="m228.2 109.7c-1 0-1.9-0.3-2.8-0.8q-0.7-0.4-1.3-0.8-0.9-0.5-1.8-1c-2.6-1.4-3.5-4.7-2-7.3 1.4-2.6 4.7-3.5 7.3-2.1q0.9 0.6 1.9 1.1 0.7 0.4 1.5 0.9c2.5 1.5 3.3 4.8 1.8 7.4-1 1.7-2.8 2.6-4.6 2.6z"/><path  d="m224.7 107.7c-0.9 0-1.8-0.2-2.6-0.7q-0.9-0.5-1.9-1-2-1.1-3.9-1.9-0.6-0.3-1.1-0.5c-2.7-1.2-4-4.4-2.8-7.1 1.2-2.7 4.4-4 7.1-2.8q0.7 0.3 1.3 0.6c1.4 0.7 2.9 1.4 4.4 2.2q1.1 0.5 2.1 1.1c2.6 1.4 3.6 4.7 2.1 7.3-1 1.8-2.8 2.8-4.7 2.8z"/><path  d="m217.2 103.9q-1.1 0-2.2-0.4c-2.2-1-4.6-2-6.9-2.8q-1.2-0.4-2.4-0.8-0.6-0.2-1.2-0.4 0 0-0.1 0-1.2-0.4-2.3-0.7-0.1 0-0.1 0-0.6-0.2-1.1-0.3-0.1 0-0.2-0.1-0.5-0.1-1.1-0.3-0.1 0-0.1 0-0.6-0.1-1.2-0.3c-2.9-0.6-4.7-3.5-4-6.4 0.7-2.9 3.5-4.7 6.4-4.1q0.8 0.2 1.5 0.4 0.7 0.2 1.3 0.3 0.7 0.2 1.4 0.4 1.4 0.4 2.8 0.8 0.7 0.2 1.3 0.5 1.4 0.4 2.7 0.9c2.6 0.9 5.2 1.9 7.7 3 2.7 1.3 3.9 4.4 2.7 7.1-0.9 2-2.9 3.2-4.9 3.2z"/><path  d="m196.8 97.4q-0.5 0-1.1-0.1-1.2-0.3-2.4-0.5c-3-0.5-4.9-3.3-4.4-6.3 0.5-2.9 3.3-4.8 6.2-4.3q1.4 0.2 2.8 0.5c2.9 0.6 4.8 3.5 4.2 6.4-0.5 2.5-2.8 4.3-5.3 4.3z"/><path  d="m188.8 96q-0.4 0-0.8 0-0.6-0.1-1.2-0.2 0 0 0 0-0.6 0-1.2-0.1c-2.9-0.3-5.1-2.9-4.8-5.9 0.3-2.9 3-5.1 5.9-4.8q0.6 0.1 1.3 0.1 0.7 0.1 1.5 0.2c2.9 0.4 5 3.1 4.6 6.1-0.4 2.7-2.7 4.6-5.3 4.6z"/><path  d="m185.9 95.7q-0.3 0-0.5 0-0.6-0.1-1.2-0.1-0.7-0.1-1.3-0.1c0 0-0.1 0-0.1 0q-0.6-0.1-1.2-0.1c-2.9-0.1-5.2-2.6-5.1-5.6 0.1-3 2.6-5.3 5.6-5.1q0.8 0 1.5 0 0.8 0.1 1.5 0.2 0.6 0 1.3 0.1c2.9 0.2 5.1 2.9 4.8 5.8-0.2 2.8-2.6 4.9-5.3 4.9z"/><path  d="m180.4 95.3q-0.1 0-0.2 0-0.7 0-1.3 0l0.1-5.4 0.2-5.4-0.2 5.4 0.2-5.4q0.7 0 1.4 0.1c3 0.1 5.3 2.6 5.2 5.6-0.1 2.9-2.5 5.1-5.4 5.1z"/><path  d="m167.7 95.6c-2.8 0-5.1-2.1-5.4-5-0.2-2.9 2-5.5 5-5.7q1.2-0.1 2.4-0.2c2.9-0.2 5.5 2.1 5.7 5 0.1 3-2.1 5.5-5.1 5.7q-1.1 0.1-2.2 0.2-0.2 0-0.4 0z"/><path  d="m165.3 95.8c-2.7 0-5-2-5.3-4.8-0.4-2.9 1.8-5.6 4.7-5.9q1.2-0.1 2.4-0.2c3-0.3 5.6 1.9 5.8 4.9 0.3 3-1.9 5.6-4.9 5.8q-1.1 0.1-2.1 0.2-0.3 0-0.6 0z"/><path  d="m138.7 102.4c-2 0-4-1.2-4.9-3.2-1.2-2.7 0.1-5.9 2.8-7.1q0.6-0.2 1.2-0.5 0.6-0.2 1.1-0.4 0.6-0.2 1.2-0.4 0.6-0.2 1.2-0.4c3.1-1.1 6.3-2.1 9.5-2.9q0.6-0.1 1.3-0.3c3.7-0.8 7.4-1.5 11.1-1.9q0.7-0.1 1.4-0.2c3-0.3 5.6 1.9 5.9 4.8 0.3 3-1.9 5.6-4.8 5.9q-0.6 0.1-1 0.1-0.1 0-0.1 0c-3.4 0.4-6.8 1-10.1 1.8q-0.1 0-0.1 0-0.5 0.1-0.9 0.3-0.1 0-0.1 0c-2.9 0.7-5.8 1.5-8.6 2.5q-0.5 0.2-1 0.4 0 0-0.1 0-0.5 0.2-0.9 0.4-0.1 0-0.1 0-0.5 0.2-0.9 0.3-0.1 0.1-0.2 0.1-0.4 0.1-0.7 0.3-1.1 0.4-2.2 0.4z"/><path  d="m134.5 104.2c-2 0-4-1.2-4.9-3.1-1.2-2.7 0-5.9 2.7-7.2q1.1-0.4 2.1-0.9 1.1-0.5 2.2-0.9c2.7-1 5.8 0.4 6.9 3.1 1.1 2.8-0.3 5.9-3.1 7q-0.8 0.3-1.7 0.7 0 0-0.1 0-0.9 0.4-1.8 0.8-1.1 0.5-2.3 0.5z"/><path  d="m132.5 105.1c-2 0-3.9-1.1-4.8-3-1.3-2.7-0.2-5.9 2.5-7.2q0.9-0.4 1.8-0.8c2.7-1.3 5.9-0.1 7.1 2.6 1.3 2.7 0.1 5.9-2.6 7.2q-0.8 0.3-1.6 0.7c-0.8 0.4-1.6 0.5-2.4 0.5z"/><path  d="m130.5 106.2c-2 0-3.9-1.1-4.8-3-1.4-2.6-0.3-5.8 2.3-7.2q0.8-0.4 1.7-0.8c2.7-1.3 5.9-0.2 7.2 2.4 1.3 2.7 0.2 5.9-2.5 7.2q-0.7 0.4-1.5 0.8c-0.8 0.4-1.6 0.6-2.4 0.6z"/><path  d="m122.6 110.6c-1.8 0-3.5-0.8-4.5-2.4-1.6-2.6-0.9-5.9 1.6-7.5q1-0.6 2.1-1.2 0.9-0.6 2-1.2 1.1-0.7 2.1-1.2 0.9-0.5 1.9-1c2.7-1.3 5.9-0.3 7.2 2.4 1.4 2.6 0.3 5.9-2.3 7.2q-0.9 0.4-1.7 0.9 0 0-0.1 0-0.8 0.5-1.8 1 0 0 0 0.1-1 0.5-1.8 1c-0.6 0.4-1.2 0.7-1.8 1.1-0.9 0.6-1.9 0.8-2.9 0.8z"/><path  d="m113.6 117c-1.6 0-3.2-0.7-4.2-2-1.9-2.3-1.5-5.7 0.8-7.6q1-0.7 1.9-1.4 1-0.8 2-1.5c2.4-1.7 5.7-1.1 7.5 1.3 1.7 2.4 1.1 5.7-1.3 7.5q-0.8 0.6-1.7 1.2-0.8 0.7-1.7 1.4c-1 0.7-2.2 1.1-3.3 1.1z"/><path  d="m218.6 104.6q-0.7 0-1.3-0.2c-2.9-0.7-4.7-3.6-4-6.5l8.7-34.5c0.9-3.7 0.1-7.5-2.3-10.5-2.3-3-5.8-4.7-9.6-4.7h-62.5c-3.8 0-7.3 1.7-9.6 4.7-2.4 3-3.2 6.8-2.2 10.4l8.1 32.5c0.7 2.9-1.1 5.8-4 6.5-2.8 0.7-5.8-1-6.5-3.9l-8.1-32.4c-1.7-6.9-0.2-14.1 4.2-19.7 4.4-5.7 11-8.9 18.1-8.9h62.5c7.1 0 13.7 3.2 18.1 8.9 4.4 5.6 5.9 12.8 4.2 19.7l-8.6 34.5c-0.6 2.4-2.8 4.1-5.2 4.1z"/><path fill-rule="evenodd" d="m236.7 276.8c-1.6 0-3.2-0.7-4.3-2.2-1.8-2.3-1.3-5.7 1.1-7.5 24.2-18.2 38.2-46.1 38.2-76.4 0-25-9.7-48.7-27.2-66.6q-0.6-0.7-1.2-1.3-0.3-0.3-0.5-0.5c0 0-0.1 0-0.1 0q-0.5-0.5-1-1l-0.5-0.4q-0.6-0.6-1.2-1.2-0.1 0-0.1-0.1-0.1 0-0.1-0.1-0.8-0.7-1.6-1.3-0.7-0.6-1.4-1.2v-0.1q-0.2-0.1-0.4-0.3-0.1 0-0.2-0.1-0.7-0.6-1.4-1.1-0.7-0.6-1.5-1.2-0.1-0.1-0.2-0.1-0.8-0.7-1.7-1.3-0.9-0.6-1.8-1.2l-0.1-0.1q-0.1 0-0.2-0.1-0.7-0.5-1.4-0.9-1.3-0.8-2.5-1.6-0.7-0.4-1.3-0.8-0.9-0.5-1.7-0.9-0.2-0.1-0.3-0.2-1-0.5-1.9-1-1.9-1-3.9-1.9-0.6-0.3-1.1-0.5-0.2-0.1-0.3-0.2c-2.2-0.9-4.5-1.9-6.8-2.7q-1.2-0.4-2.4-0.8l-1.2-0.4q-1.3-0.4-2.5-0.7-0.6-0.2-1.2-0.3l-2.5-0.7q-1.3-0.3-2.6-0.5-1.2-0.3-2.5-0.5-2.5-0.5-5.1-0.8-0.7-0.1-1.3-0.2 0 0 0 0-0.6 0-1.2-0.1-0.1 0-0.1 0-0.1 0-0.2 0-0.6-0.1-1.1-0.1-0.7-0.1-1.3-0.1c0 0-0.1 0-0.1 0q-0.6-0.1-1.2-0.1c-0.5 0-0.9-0.1-1.4-0.1q-0.7 0-1.4 0c-2.8-0.1-5.7 0-8.5 0.1q-1 0.1-2 0.2-0.2 0-0.4 0-0.9 0.1-1.9 0.2l-1.4 0.1c-3.4 0.5-6.8 1.1-10.1 1.8l-1.1 0.3c-2.9 0.7-5.8 1.6-8.6 2.5q-0.5 0.2-1 0.4-0.4 0.1-0.7 0.2l-0.4 0.2q-0.4 0.1-0.7 0.3l-0.4 0.1q-0.4 0.1-0.8 0.3l-0.1 0.1q-0.1 0-0.3 0.1-0.8 0.3-1.7 0.7-1 0.4-1.9 0.8l-0.3 0.2q-0.8 0.3-1.6 0.7-0.2 0.1-0.4 0.2h-0.1q-0.7 0.4-1.5 0.8h-0.1q0 0.1-0.1 0.1-0.9 0.4-1.7 0.9-1 0.5-1.9 1-0.9 0.6-1.8 1.1-0.9 0.5-1.8 1.1-2.6 1.6-5.2 3.5-0.8 0.6-1.7 1.2-0.8 0.7-1.7 1.4-2.5 2-4.9 4.1c-19.9 18.1-31.3 43.9-31.3 70.7 0 30.3 13.9 58.2 38.2 76.4 2.4 1.8 2.8 5.2 1 7.5-1.7 2.4-5.1 2.9-7.5 1.1-12.9-9.7-23.6-22.4-30.9-36.7-7.7-15-11.6-31.3-11.6-48.3 0-29.9 12.7-58.5 34.9-78.6 1.7-1.6 3.6-3.2 5.4-4.7q1-0.7 1.9-1.4 1-0.8 2-1.5c1.8-1.3 3.7-2.6 5.6-3.8q1-0.6 2-1.2 1.1-0.6 2.1-1.2 1-0.6 2.1-1.2 0.9-0.5 1.8-0.9 0.2-0.1 0.3-0.2 0.9-0.4 1.7-0.8 0 0 0-0.1l0.3-0.1c0.1 0 0.2-0.1 0.2-0.1q0.9-0.4 1.8-0.8l0.2-0.1q1.2-0.6 2.3-1 0.9-0.4 1.9-0.8 0.1-0.1 0.3-0.1v-0.1q0.5-0.1 1.1-0.4l0.3-0.1q0.4-0.2 0.9-0.3l0.4-0.2q0.4-0.1 0.7-0.2h0.1q0.5-0.3 1.1-0.4c3.1-1.1 6.3-2.1 9.5-2.9l1.2-0.3c3.7-0.8 7.5-1.5 11.3-1.9l1.2-0.2c0 0 0.1 0 0.1 0 0 0 0.1 0 0.2 0h0.2q1-0.1 2.1-0.2 0 0 0 0 0.1 0 0.2 0 1.2-0.1 2.4-0.2c3-0.2 6.3-0.3 9.5-0.2q0.7 0 1.4 0.1 0.8 0 1.6 0.1 0.7 0 1.4 0 0.8 0.1 1.5 0.2 0.6 0 1.3 0.1 0.1 0 0.2 0 0.1 0 0.2 0 0.6 0.1 1.2 0.1 0.7 0.1 1.5 0.2c1.8 0.2 3.8 0.5 5.6 0.9q1.5 0.2 2.8 0.5 1.5 0.3 2.9 0.7l2.7 0.6q0.7 0.2 1.3 0.4h0.1q1.4 0.4 2.8 0.8l1.3 0.5q1.4 0.4 2.7 0.9 3.9 1.4 7.7 3 0 0.1 0.1 0.1l-2.2 4.9 2.3-4.9h-0.1q0 0 0.1 0 0.6 0.3 1.2 0.6 2.3 1.1 4.4 2.2 1.1 0.5 2.1 1.1 0.1 0 0.1 0c0.1 0.1 0.1 0.1 0.2 0.1q0.9 0.6 1.8 1.1 0.8 0.4 1.5 0.9 1.5 0.8 2.8 1.7 0.8 0.5 1.7 1.1 0 0 0.1 0.1l0.2 0.1q0.9 0.7 1.9 1.4 0.9 0.6 1.8 1.3 0.1 0 0.2 0.1 0.9 0.7 1.9 1.4 0.8 0.6 1.5 1.2 0.3 0.3 0.6 0.5l0.1 0.1q0.7 0.6 1.5 1.3 0.8 0.7 1.7 1.4 0.1 0.2 0.3 0.3 0.7 0.6 1.3 1.2l0.5 0.5q0.7 0.6 1.3 1.2 0.2 0.3 0.5 0.6 0.7 0.6 1.5 1.4c19.4 19.9 30.1 46.3 30.1 74.1 0 17-3.9 33.3-11.6 48.3-7.3 14.3-18 27-30.9 36.7-0.9 0.7-2.1 1.1-3.2 1.1zm-17.2-183.1q0 0 0 0z"/><path  d="m306.6 276.8h-262.2c-3 0-5.4-2.4-5.4-5.4 0-3 2.4-5.4 5.4-5.4h262.2c3 0 5.4 2.4 5.4 5.4 0 3-2.4 5.4-5.4 5.4z"/><path  d="m59.4 304l8.9 14.2 8.9-14.2h5.7l-11.7 18.4 12 18.6h-5.8l-9.1-14.4-9.1 14.4h-5.8l12-18.6-11.7-18.4zm55 0v4h-11.9v33h-4.9v-33h-11.8v-4zm27 37l-8-15h-8.7v15h-4.9v-37h12.3q6.2 0 9.6 2.9 3.4 2.8 3.4 8.3 0 3.4-1.9 6-1.9 2.5-5.2 3.8l8.7 15.7v0.3zm-16.7-33v14.1h7.5q3.6 0 5.7-1.9 2.2-1.9 2.2-5 0-3.5-2.1-5.3-2-1.8-5.9-1.9zm51.1 33l-3.5-9.6h-15.5l-3.5 9.6h-5l14.1-37h4.3l14.1 37zm-11.3-31l-6.2 17.3h12.5z"/><path class="e" d="m211.1 320.9v4h-16v13.1h18.6v4h-23.5v-37h23.2v4h-18.3v11.9zm36.9 1.4v2.4q0 5.4-1.7 9.3-1.7 3.8-4.8 6l6.6 5.2-3.3 3-7.8-6.1q-1.9 0.4-3.9 0.4-4.4 0-7.7-2.1-3.4-2.2-5.3-6.1-1.8-4-1.9-9.3v-2.6q0-5.4 1.9-9.4 1.8-4.1 5.2-6.3 3.4-2.2 7.8-2.2 4.4 0 7.8 2.2 3.4 2.1 5.2 6.2 1.9 4 1.9 9.4zm-4.9 2.8v-2.8q0-6.5-2.6-10-2.6-3.6-7.4-3.6-4.6 0-7.3 3.5-2.6 3.5-2.7 9.8v2.7q0 6.4 2.6 10 2.7 3.7 7.4 3.7 4.7 0 7.3-3.5 2.6-3.4 2.7-9.8zm17.6-20.1v37h-4.9v-37zm22.5 22.5h-8.7v14.5h-4.9v-37h13.7q6 0 9.5 3.1 3.4 3.1 3.4 8.2 0 5.4-3.4 8.3-3.3 2.9-9.6 2.9zm-8.7-18.5v14.5h8.8q3.9 0 6-1.8 2.1-1.8 2.1-5.3 0-3.3-2.1-5.3-2.1-2-5.7-2.1z"/></svg>